<svg width="70" height="76" viewBox="0 0 70 76" fill="none" xmlns="http://www.w3.org/2000/svg">
<path fill-rule="evenodd" clip-rule="evenodd" d="M44.3032 2.58275C45.3275 1.66024 46.8413 1.43426 47.9644 2.23343C53.3597 6.07257 57.3668 11.9253 58.7239 18.8428C61.4882 32.9336 52.21 46.1068 38.1192 48.8711C24.0284 51.6354 10.3646 42.4534 7.6003 28.3626C6.54475 22.9821 7.23106 17.6639 9.26739 12.9909C9.81654 11.7307 11.2266 11.147 12.5764 11.407C17.1079 12.2797 21.8796 12.3135 26.6862 11.3706C33.4945 10.0349 39.4975 6.91122 44.3032 2.58275Z" fill="#D7BE3B"/>
<rect x="33" y="51" width="4" height="25" rx="1" fill="#C4C4C4"/>
<rect x="14" y="51" width="4" height="25" rx="1" fill="#C4C4C4"/>
<rect x="52" y="51" width="4" height="25" rx="1" fill="#C4C4C4"/>
<path d="M2 19H68V57C68 58.1046 67.1046 59 66 59H4C2.89543 59 2 58.1046 2 57V19Z" fill="#848484"/>
<rect y="16" width="70" height="3" rx="1" fill="#606060"/>
<rect x="15" y="25" width="2" height="31.3" rx="1" transform="rotate(-90 15 25)" fill="#C4C4C4"/>
<rect x="15" y="23" width="2" height="28" rx="1" fill="#C4C4C4"/>
<path d="M35.7 39.1002C35.7 38.5479 36.1477 38.1002 36.7 38.1002C37.2523 38.1002 37.7 38.5479 37.7 39.1002V50.1002C37.7 50.6525 37.2523 51.1002 36.7 51.1002C36.1477 51.1002 35.7 50.6525 35.7 50.1002V39.1002Z" fill="#C4C4C4"/>
<path d="M45.2999 23.1002C44.7476 23.1002 44.2999 23.5479 44.2999 24.1002V29.998L36.0071 38.2909C35.6165 38.6814 35.6165 39.3146 36.0071 39.7051C36.3976 40.0956 37.0308 40.0956 37.4213 39.7051L45.9049 31.2215C46.0932 31.0332 46.2933 30.8743 46.3 30.6275L46.2999 30.1002V24.1002C46.2999 23.5479 45.8522 23.1002 45.2999 23.1002Z" fill="#C4C4C4"/>
<path d="M53 39.1002C53 38.5479 53.4477 38.1002 54 38.1002C54.5523 38.1002 55 38.5479 55 39.1002V50.1002C55 50.6525 54.5523 51.1002 54 51.1002C53.4477 51.1002 53 50.6525 53 50.1002V39.1002Z" fill="#C4C4C4"/>
</svg>
