<svg width="70" height="76" viewBox="0 0 70 76" fill="none" xmlns="http://www.w3.org/2000/svg">
<path fill-rule="evenodd" clip-rule="evenodd" d="M23.3296 2.58275C22.3054 1.66024 20.7916 1.43426 19.6685 2.23343C14.2732 6.07257 10.266 11.9253 8.90897 18.8428C6.14466 32.9336 15.4229 46.1068 29.5137 48.8711C43.6044 51.6354 57.2683 42.4534 60.0326 28.3626C61.0881 22.9821 60.4018 17.6639 58.3655 12.9909C57.8163 11.7307 56.4063 11.147 55.0564 11.407C50.5249 12.2797 45.7533 12.3135 40.9467 11.3706C34.1384 10.0349 28.1354 6.91122 23.3296 2.58275Z" fill="#D73B98"/>
<rect x="33" y="51" width="4" height="25" rx="1" fill="#C4C4C4"/>
<rect x="14" y="51" width="4" height="25" rx="1" fill="#C4C4C4"/>
<rect x="52" y="51" width="4" height="25" rx="1" fill="#C4C4C4"/>
<path d="M2 19H68V57C68 58.1046 67.1046 59 66 59H4C2.89543 59 2 58.1046 2 57V19Z" fill="#848484"/>
<rect y="16" width="70" height="3" rx="1" fill="#606060"/>
<rect x="15" y="25" width="2" height="31.3" rx="1" transform="rotate(-90 15 25)" fill="#C4C4C4"/>
<rect x="15" y="23" width="2" height="28" rx="1" fill="#C4C4C4"/>
<rect x="35.7" y="38" width="2" height="13" rx="1" fill="#C4C4C4"/>
<path d="M45.3001 23C45.8524 23 46.3001 23.4477 46.3001 24V29.8978L54.5929 38.1907C54.9835 38.5812 54.9835 39.2144 54.5929 39.6049C54.2024 39.9954 53.5692 39.9954 53.1787 39.6049L44.6951 31.1213C44.5069 30.933 44.3067 30.7741 44.3 30.5273L44.3001 30V24C44.3001 23.4477 44.7478 23 45.3001 23Z" fill="#C4C4C4"/>
<rect x="53" y="38" width="2" height="13" rx="1" fill="#C4C4C4"/>
</svg>
