<svg width="111" height="50" viewBox="0 0 111 50" fill="none" xmlns="http://www.w3.org/2000/svg">
<rect x="37.6985" y="18.6065" width="23.0109" height="1.51852" rx="0.759259" transform="rotate(-30.3102 37.6985 18.6065)" fill="black" stroke="black"/>
<rect x="57.0867" y="7.01861" width="21.9221" height="1.51852" rx="0.759259" transform="rotate(30.2769 57.0867 7.01861)" fill="black" stroke="black"/>
<rect x="74.0719" y="17.8106" width="14.6162" height="1.51852" rx="0.759259" transform="rotate(-29.5795 74.0719 17.8106)" fill="black" stroke="black"/>
<rect x="75.6746" y="17.537" width="14.6429" height="1.51852" rx="0.759259" transform="rotate(90 75.6746 17.537)" fill="black" stroke="black"/>
<path d="M21.2011 7.70169C21.8199 7.34443 22.5823 7.34443 23.2011 7.70169L39.6121 17.1766C40.2309 17.5339 40.6121 18.1941 40.6121 18.9087V37.8585C40.6121 38.5731 40.2309 39.2333 39.6121 39.5906L23.2011 49.0655C22.5823 49.4228 21.8199 49.4228 21.2011 49.0655L4.79002 39.5906C4.17122 39.2333 3.79002 38.5731 3.79002 37.8585V18.9087C3.79002 18.1941 4.17122 17.5339 4.79002 17.1766L21.2011 7.70169Z" fill="black" stroke="black"/>
<path d="M21.2553 9.65408C21.8741 9.29681 22.6365 9.29681 23.2553 9.65408L37.9286 18.1257C38.5474 18.483 38.9286 19.1432 38.9286 19.8578V36.801C38.9286 37.5155 38.5474 38.1758 37.9286 38.533L23.2553 47.0047C22.6365 47.3619 21.8741 47.3619 21.2553 47.0047L6.58202 38.533C5.96322 38.1758 5.58202 37.5155 5.58202 36.801V19.8578C5.58202 19.1432 5.96322 18.483 6.58202 18.1257L21.2553 9.65408Z" fill="#fff" stroke="black"/>
<rect x="22.5247" y="11.7884" width="15.8902" height="1.51852" rx="0.759259" transform="rotate(29.9241 22.5247 11.7884)" fill="black" stroke="black"/>
<rect x="21.8757" y="43.7073" width="15.8902" height="1.51852" rx="0.759259" transform="rotate(-30.9199 21.8757 43.7073)" fill="black" stroke="black"/>
<rect x="9.07674" y="20.4656" width="15.8902" height="1.51852" rx="0.759259" transform="rotate(90 9.07674 20.4656)" fill="black" stroke="black"/>
<path d="M93.6012 3.41055H95.652V9.26407C95.652 9.80704 95.525 10.2914 95.2711 10.7172C95.0211 11.143 94.6695 11.4731 94.2164 11.7074C93.7672 11.9418 93.2652 12.059 92.7106 12.059C91.7809 12.059 91.0582 11.8246 90.5426 11.3559C90.027 10.8871 89.7691 10.2231 89.7691 9.36368H91.8316C91.8316 9.7543 91.8981 10.0375 92.0309 10.2133C92.1676 10.3891 92.3941 10.477 92.7106 10.477C92.9957 10.477 93.2145 10.3715 93.3668 10.1606C93.5231 9.94571 93.6012 9.64688 93.6012 9.26407V3.41055ZM101.353 9.67422C101.353 9.37344 101.246 9.13907 101.031 8.9711C100.82 8.80313 100.447 8.6293 99.9117 8.44962C99.3766 8.26993 98.9391 8.0961 98.5992 7.92813C97.4938 7.38516 96.941 6.63907 96.941 5.68985C96.941 5.21719 97.0777 4.80118 97.3512 4.4418C97.6285 4.07852 98.0191 3.79727 98.5231 3.59805C99.027 3.39493 99.5934 3.29337 100.222 3.29337C100.836 3.29337 101.384 3.40274 101.869 3.62149C102.357 3.84024 102.736 4.15274 103.005 4.55899C103.275 4.96133 103.41 5.42227 103.41 5.9418H101.359C101.359 5.59415 101.252 5.32462 101.037 5.13321C100.826 4.9418 100.539 4.8461 100.175 4.8461C99.8082 4.8461 99.5172 4.92813 99.3024 5.09219C99.0914 5.25235 98.9859 5.45743 98.9859 5.70743C98.9859 5.92618 99.1031 6.1254 99.3375 6.30508C99.5719 6.48087 99.984 6.66446 100.574 6.85587C101.164 7.04337 101.648 7.24649 102.027 7.46524C102.949 7.99649 103.41 8.72891 103.41 9.66251C103.41 10.4086 103.129 10.9945 102.566 11.4203C102.004 11.8461 101.232 12.059 100.252 12.059C99.5602 12.059 98.9332 11.9359 98.3707 11.6898C97.8121 11.4398 97.3902 11.1 97.1051 10.6703C96.8238 10.2367 96.6832 9.73868 96.6832 9.17618H98.7457C98.7457 9.63321 98.8629 9.9711 99.0973 10.1898C99.3356 10.4047 99.7203 10.5121 100.252 10.5121C100.591 10.5121 100.859 10.4398 101.054 10.2953C101.254 10.1469 101.353 9.93985 101.353 9.67422Z" fill="black"/>
<path d="M110.139 16.0159H105.178V14.9417L107.463 12.5393C108.026 11.898 108.308 11.3886 108.308 11.011C108.308 10.705 108.241 10.4723 108.108 10.3128C107.974 10.1532 107.781 10.0735 107.527 10.0735C107.276 10.0735 107.073 10.1809 106.916 10.3958C106.76 10.6073 106.682 10.8726 106.682 11.1917H105.031C105.031 10.7555 105.141 10.3534 105.359 9.9856C105.577 9.61451 105.879 9.3248 106.267 9.11646C106.654 8.90813 107.087 8.80396 107.566 8.80396C108.334 8.80396 108.925 8.98137 109.338 9.33619C109.755 9.69101 109.963 10.2004 109.963 10.8645C109.963 11.1445 109.911 11.4179 109.807 11.6848C109.703 11.9485 109.54 12.2268 109.319 12.5198C109.1 12.8095 108.747 13.1985 108.259 13.6868L107.341 14.7463H110.139V16.0159Z" fill="black"/>
</svg>
